<?xml version="1.0" encoding="UTF-8"?>
<svg id="Layer_2" data-name="Layer 2" xmlns="http://www.w3.org/2000/svg" viewBox="0 0 254 102.3">
  <defs>
    <style>
      .cls-1 {
        letter-spacing: .07em;
      }

      .cls-2 {
        letter-spacing: .03em;
      }

      .cls-3 {
        fill: #4c1711;
      }

      .cls-4 {
        letter-spacing: -.02em;
      }

      .cls-5 {
        fill: #87565b;
        font-family: SulphurPoint-Bold, 'Sulphur Point';
        font-size: 67.84px;
        font-weight: 700;
      }
    </style>
  </defs>
  <g id="Layer_1-2" data-name="Layer 1">
    <g>
      <text class="cls-5" transform="translate(0 87.85)"><tspan class="cls-1" x="0" y="0" xml:space="preserve">  n</tspan><tspan class="cls-2" x="108.34" y="0">e</tspan><tspan class="cls-1" x="150" y="0">x</tspan><tspan class="cls-4" x="188.13" y="0">r</tspan><tspan class="cls-1" x="213.64" y="0">a</tspan></text>
      <path class="cls-3" d="M28.87,87.76c7.72-24.23,16.65-50.75,24.93-74.8,1-2.95,2.71-7.66,3.54-10.65,1.16-3.68,6.57-2.73,6.42,1.12.1,11.86.26,28.37.22,40.04,0,11.78.04,28.42-.12,40.04.08,3.43-4.15,5.56-6.86,3.53-8.25-5.89-27.68-18.96-35.62-24.73,0,0-11.82-8.32-11.82-8.32-2.01-1.39-2.5-4.15-1.09-6.14.82-1.17,2.13-1.81,3.45-1.86,0,0,21.26-.69,21.26-.69,27.11-.68,58.06-1.4,85.1-1.55,7.1-.03,14.19-.15,21.29-.08,12.16.06,30.54.04,42.59.34,1.67,1.38-170.13,6.37-170.07,6.85,0,0,.25-.85.25-.85l47.42,33.09s-.72.37-.72.37l1.07-80.07.7.12c-1.2,3.57-2.59,7.05-3.88,10.58-2.49,6.66-9.24,24.75-11.82,31.65,0,0-15.76,42.2-15.76,42.2-.05.13-.19.19-.32.15-.13-.05-.19-.19-.15-.32h0Z"/>
    </g>
  </g>
</svg>